<?xml version="1.0" encoding="UTF-8" standalone="no"?><!DOCTYPE svg PUBLIC "-//W3C//DTD SVG 1.1//EN"
        "http://www.w3.org/Graphics/SVG/1.1/DTD/svg11.dtd">
<svg width="100%" height="100%" viewBox="0 0 167 167" version="1.1" xmlns="http://www.w3.org/2000/svg"
     xml:space="preserve"
     style="fill-rule:evenodd;clip-rule:evenodd;stroke-linecap:round;stroke-linejoin:round;stroke-miterlimit:1.5;"><g><g><ellipse cx="83.296" cy="85.205" rx="71.296" ry="71.323" style="fill:#191919;"/><path
        d="M84.404,9.032c2.01,0 3.643,1.633 3.643,3.642c-0,2.01 -1.633,3.643 -3.643,3.643c-2.009,-0 -3.642,-1.633 -3.642,-3.643c-0,-2.009 1.633,-3.642 3.642,-3.642Z"
        style="fill:url(#_Linear1);fill-rule:nonzero;"/><path
        d="M147.891,114.705c2.01,0 3.643,1.633 3.643,3.642c-0,2.01 -1.633,3.643 -3.643,3.643c-2.009,-0 -3.642,-1.633 -3.642,-3.643c0,-2.009 1.633,-3.642 3.642,-3.642Z"
        style="fill:url(#_Linear2);fill-rule:nonzero;"/><path
        d="M19.499,116.459c2.01,-0 3.642,1.632 3.642,3.642c0,2.01 -1.632,3.642 -3.642,3.642c-2.01,0 -3.642,-1.632 -3.642,-3.642c-0,-2.01 1.632,-3.642 3.642,-3.642Z"
        style="fill:url(#_Linear3);fill-rule:nonzero;"/><path
        d="M85.048,146.89c2.009,-0 3.642,1.632 3.642,3.642c-0,2.01 -1.633,3.642 -3.642,3.642c-2.01,0 -3.643,-1.632 -3.643,-3.642c0,-2.01 1.633,-3.642 3.643,-3.642Z"
        style="fill:url(#_Linear4);fill-rule:nonzero;"/><path
        d="M20.342,97.575c2.009,-0 3.642,1.632 3.642,3.642c-0,2.01 -1.633,3.643 -3.642,3.643c-2.01,-0 -3.643,-1.633 -3.643,-3.643c0,-2.01 1.633,-3.642 3.643,-3.642Z"
        style="fill:url(#_Linear5);fill-rule:nonzero;"/><path
        d="M45.067,28.911c2.01,0 3.643,1.633 3.643,3.642c-0,2.01 -1.633,3.643 -3.643,3.643c-2.009,-0 -3.642,-1.633 -3.642,-3.643c0,-2.009 1.633,-3.642 3.642,-3.642Z"
        style="fill:url(#_Linear6);fill-rule:nonzero;"/><path
        d="M124.649,31.368c2.01,0 3.642,1.633 3.642,3.643c0,2.009 -1.632,3.642 -3.642,3.642c-2.01,-0 -3.643,-1.633 -3.643,-3.642c0,-2.01 1.633,-3.643 3.643,-3.643Z"
        style="fill:url(#_Linear7);fill-rule:nonzero;"/><path
        d="M147.095,97.08c2.01,-0 3.643,1.632 3.643,3.642c-0,2.01 -1.633,3.642 -3.643,3.642c-2.009,0 -3.642,-1.632 -3.642,-3.642c0,-2.01 1.633,-3.642 3.642,-3.642Z"
        style="fill:url(#_Linear8);fill-rule:nonzero;"/><clipPath id="_clip9"><path d="M80.686,-1.193c50.942,0 92.302,41.359 92.302,92.302c-0,50.943 -41.36,92.302 -92.302,92.302c-50.943,0 -92.302,-41.359 -92.302,-92.302c-0,-50.943 41.359,-92.302 92.302,-92.302Zm-58.76,116.811l-2.324,-4.979l-7.073,3.302l2.324,4.979l7.073,-3.302Zm124.512,12.201l3.057,-4.566l-6.486,-4.342l-3.057,4.566l6.486,4.342Zm-53.096,-118.294l-5.479,-0.417l-0.592,7.783l5.479,0.417l0.592,-7.783Z"/></clipPath><g
        clip-path="url(#_clip9)"><circle cx="83.333" cy="85.216" r="72.418" style="fill:none;stroke:url(#_Linear10);stroke-width:2.48px;"/></g><clipPath
        id="_clip11"><path d="M84.48,-0.032c49.096,0 88.955,39.859 88.955,88.955c-0,49.095 -39.859,88.954 -88.955,88.954c-49.095,-0 -88.954,-39.859 -88.954,-88.954c0,-49.096 39.859,-88.955 88.954,-88.955Zm-69.306,99.084l8.53,-1.858l-1.175,-5.394l-8.53,1.858l1.175,5.394Zm114.918,-65.113l-6.038,6.304l3.986,3.819l6.039,-6.305l-3.987,-3.818Zm-48.507,120.762l0.392,-8.721l-5.515,-0.247l-0.392,8.721l5.515,0.247Zm68.31,-49.202l-8.052,-3.375l-2.134,5.092l8.052,3.374l2.134,-5.091Zm-105.029,-78.67l4.73,7.337l4.64,-2.992l-4.73,-7.337l-4.64,2.992Z"/></clipPath><g
        clip-path="url(#_clip11)"><circle cx="83.333" cy="85.216" r="65.232" style="fill:none;stroke:url(#_Linear12);stroke-width:2.76px;"/></g><g><path d="M83.223,75.522l0.202,19.492l-16.78,9.921l-16.981,-9.571l-0.202,-19.492l16.779,-9.921l16.982,9.571Z" style="fill:none;stroke:url(#_Linear13);stroke-width:2.48px;"/>
    <path d="M117.003,75.062l0.202,19.491l-16.78,9.921l-16.981,-9.571l-0.202,-19.491l16.779,-9.921l16.982,9.571Z"
          style="fill:none;stroke:url(#_Linear14);stroke-width:2.48px;"/>
    <path d="M100.507,104.516l0.202,19.492l-16.779,9.921l-16.981,-9.571l-0.202,-19.492l16.779,-9.921l16.981,9.571Z"
          style="fill:none;stroke:url(#_Linear15);stroke-width:2.48px;"/>
    <path d="M99.728,46.075l0.202,19.491l-16.779,9.921l-16.981,-9.571l-0.202,-19.492l16.779,-9.92l16.981,9.571Z"
          style="fill:none;stroke:url(#_Linear16);stroke-width:2.48px;"/></g><path d="M49.462,75.872l-13.415,-9.921"
                                                                                   style="fill:none;stroke:url(#_Linear17);stroke-width:2.48px;"/><path
        d="M99.728,46.075l8.799,-8.342" style="fill:none;stroke:url(#_Linear18);stroke-width:2.48px;"/><circle
        cx="109.273" cy="37.107" r="2.639" style="fill:url(#_Linear19);"/><path d="M98.723,103.541l10.543,5.987"
                                                                                style="fill:none;stroke:url(#_Linear20);stroke-width:2.48px;"/><path
        d="M112.608,109.29c0.424,1.394 -0.363,2.87 -1.756,3.294c-1.394,0.425 -2.87,-0.362 -3.294,-1.756c-0.425,-1.393 0.362,-2.869 1.756,-3.294c1.393,-0.424 2.869,0.363 3.294,1.756Z"
        style="fill:#eeacff;"/><circle cx="34.6" cy="64.73" r="2.639" style="fill:url(#_Linear21);"/><rect x="75.491"
                                                                                                           y="72.936"
                                                                                                           width="15.644"
                                                                                                           height="24.382"
                                                                                                           style="fill:#191919;"/><g
        transform="matrix(0.994591,0,0,1,0.626221,-7.10543e-15)">
    <text x="68.811px" y="101.567px"
          style="font-family:'LigaSFMonoNerdFont-Bold', 'Liga SFMono Nerd Font', monospace;font-weight:700;font-size:46.413px;fill:#fff;">O</text></g><g
        transform="matrix(1,0,-0.143207,0.740741,10.399,18.8262)">
    <text x="99.72px" y="108.162px"
          style="font-family:'LigaSFMonoNerdFont-Bold', 'Liga SFMono Nerd Font', monospace;font-weight:700;font-size:16.784px;fill:#fff;">x<tspan
            x="108.417px " y="108.162px ">o</tspan></text></g><g
        transform="matrix(0.994591,0,0,1,0.602176,7.10543e-15)">
    <text x="94.309px" y="77.416px"
          style="font-family:'LigaSFMonoNerdFont-Bold', 'Liga SFMono Nerd Font', monospace;font-weight:700;font-size:16.816px;fill:#fff;">C</text></g></g></g>
    <defs><linearGradient id="_Linear1" x1="0" y1="0" x2="1" y2="0" gradientUnits="userSpaceOnUse" gradientTransform="matrix(-7.31719,-10.2823,10.2823,-7.31719,92.3633,97.7531)"><stop offset="0" style="stop-color:#eeacff;stop-opacity:1"/><stop
            offset="1" style="stop-color:#75fff1;stop-opacity:1"/></linearGradient>
        <linearGradient id="_Linear2" x1="0" y1="0" x2="1" y2="0" gradientUnits="userSpaceOnUse"
                        gradientTransform="matrix(-7.31719,-10.2823,10.2823,-7.31719,91.0153,96.5335)"><stop offset="0" style="stop-color:#eeacff;stop-opacity:1"/>
            <stop offset="1" style="stop-color:#75fff1;stop-opacity:1"/></linearGradient>
        <linearGradient id="_Linear3" x1="0" y1="0" x2="1" y2="0" gradientUnits="userSpaceOnUse"
                        gradientTransform="matrix(-7.31719,-10.2823,10.2823,-7.31719,92.3633,97.7531)"><stop offset="0" style="stop-color:#eeacff;stop-opacity:1"/>
            <stop offset="1" style="stop-color:#75fff1;stop-opacity:1"/></linearGradient>
        <linearGradient id="_Linear4" x1="0" y1="0" x2="1" y2="0" gradientUnits="userSpaceOnUse"
                        gradientTransform="matrix(-7.31719,-10.2823,10.2823,-7.31719,92.3633,97.7531)"><stop offset="0" style="stop-color:#eeacff;stop-opacity:1"/>
            <stop offset="1" style="stop-color:#75fff1;stop-opacity:1"/></linearGradient>
        <linearGradient id="_Linear5" x1="0" y1="0" x2="1" y2="0" gradientUnits="userSpaceOnUse"
                        gradientTransform="matrix(-7.31719,-10.2823,10.2823,-7.31719,93.2151,97.9213)"><stop offset="0" style="stop-color:#eeacff;stop-opacity:1"/>
            <stop offset="1" style="stop-color:#75fff1;stop-opacity:1"/></linearGradient>
        <linearGradient id="_Linear6" x1="0" y1="0" x2="1" y2="0" gradientUnits="userSpaceOnUse"
                        gradientTransform="matrix(-7.31719,-10.2823,10.2823,-7.31719,94.7704,94.3832)"><stop offset="0" style="stop-color:#eeacff;stop-opacity:1"/>
            <stop offset="1" style="stop-color:#75fff1;stop-opacity:1"/></linearGradient>
        <linearGradient id="_Linear7" x1="0" y1="0" x2="1" y2="0" gradientUnits="userSpaceOnUse"
                        gradientTransform="matrix(-7.31719,-10.2823,10.2823,-7.31719,92.3633,97.7531)"><stop offset="0" style="stop-color:#eeacff;stop-opacity:1"/>
            <stop offset="1" style="stop-color:#75fff1;stop-opacity:1"/></linearGradient>
        <linearGradient id="_Linear8" x1="0" y1="0" x2="1" y2="0" gradientUnits="userSpaceOnUse"
                        gradientTransform="matrix(-7.31719,-10.2823,10.2823,-7.31719,92.3633,97.7531)"><stop offset="0" style="stop-color:#eeacff;stop-opacity:1"/>
            <stop offset="1" style="stop-color:#75fff1;stop-opacity:1"/></linearGradient>
        <linearGradient id="_Linear10" x1="0" y1="0" x2="1" y2="0" gradientUnits="userSpaceOnUse"
                        gradientTransform="matrix(-7.31719,-10.2823,10.2823,-7.31719,92.3633,97.7531)"><stop offset="0" style="stop-color:#eeacff;stop-opacity:1"/>
            <stop offset="1" style="stop-color:#75fff1;stop-opacity:1"/></linearGradient>
        <linearGradient id="_Linear12" x1="0" y1="0" x2="1" y2="0" gradientUnits="userSpaceOnUse"
                        gradientTransform="matrix(-7.31719,-10.2823,10.2823,-7.31719,92.3633,97.7531)"><stop offset="0" style="stop-color:#eeacff;stop-opacity:1"/>
            <stop offset="1" style="stop-color:#75fff1;stop-opacity:1"/></linearGradient>
        <linearGradient id="_Linear13" x1="0" y1="0" x2="1" y2="0" gradientUnits="userSpaceOnUse"
                        gradientTransform="matrix(-7.31719,-10.2823,10.2823,-7.31719,92.3633,97.7531)"><stop offset="0" style="stop-color:#eeacff;stop-opacity:1"/>
            <stop offset="1" style="stop-color:#75fff1;stop-opacity:1"/></linearGradient>
        <linearGradient id="_Linear14" x1="0" y1="0" x2="1" y2="0" gradientUnits="userSpaceOnUse"
                        gradientTransform="matrix(-7.31719,-10.2823,10.2823,-7.31719,92.3633,97.7531)"><stop offset="0" style="stop-color:#eeacff;stop-opacity:1"/>
            <stop offset="1" style="stop-color:#75fff1;stop-opacity:1"/></linearGradient>
        <linearGradient id="_Linear15" x1="0" y1="0" x2="1" y2="0" gradientUnits="userSpaceOnUse"
                        gradientTransform="matrix(-7.31719,-10.2823,10.2823,-7.31719,92.3633,97.7531)"><stop offset="0" style="stop-color:#eeacff;stop-opacity:1"/>
            <stop offset="1" style="stop-color:#75fff1;stop-opacity:1"/></linearGradient>
        <linearGradient id="_Linear16" x1="0" y1="0" x2="1" y2="0" gradientUnits="userSpaceOnUse"
                        gradientTransform="matrix(-7.31719,-10.2823,10.2823,-7.31719,92.3633,97.7531)"><stop offset="0" style="stop-color:#eeacff;stop-opacity:1"/>
            <stop offset="1" style="stop-color:#75fff1;stop-opacity:1"/></linearGradient>
        <linearGradient id="_Linear17" x1="0" y1="0" x2="1" y2="0" gradientUnits="userSpaceOnUse"
                        gradientTransform="matrix(-7.31719,-10.2823,10.2823,-7.31719,92.3633,97.7531)"><stop offset="0" style="stop-color:#eeacff;stop-opacity:1"/>
            <stop offset="1" style="stop-color:#75fff1;stop-opacity:1"/></linearGradient>
        <linearGradient id="_Linear18" x1="0" y1="0" x2="1" y2="0" gradientUnits="userSpaceOnUse"
                        gradientTransform="matrix(-7.31719,-10.2823,10.2823,-7.31719,92.3633,97.7531)"><stop offset="0" style="stop-color:#eeacff;stop-opacity:1"/>
            <stop offset="1" style="stop-color:#75fff1;stop-opacity:1"/></linearGradient>
        <linearGradient id="_Linear19" x1="0" y1="0" x2="1" y2="0" gradientUnits="userSpaceOnUse"
                        gradientTransform="matrix(-7.31719,-10.2823,10.2823,-7.31719,92.3633,97.7531)"><stop offset="0" style="stop-color:#eeacff;stop-opacity:1"/>
            <stop offset="1" style="stop-color:#75fff1;stop-opacity:1"/></linearGradient>
        <linearGradient id="_Linear20" x1="0" y1="0" x2="1" y2="0" gradientUnits="userSpaceOnUse"
                        gradientTransform="matrix(-7.31719,-10.2823,10.2823,-7.31719,92.3633,97.7531)"><stop offset="0" style="stop-color:#eeacff;stop-opacity:1"/>
            <stop offset="1" style="stop-color:#75fff1;stop-opacity:1"/></linearGradient>
        <linearGradient id="_Linear21" x1="0" y1="0" x2="1" y2="0" gradientUnits="userSpaceOnUse"
                        gradientTransform="matrix(-7.31719,-10.2823,10.2823,-7.31719,17.6905,125.376)"><stop offset="0" style="stop-color:#eeacff;stop-opacity:1"/>
            <stop offset="1" style="stop-color:#75fff1;stop-opacity:1"/></linearGradient></defs></svg>